<mxfile host="app.diagrams.net" modified="2023-08-25T05:52:31.424Z" agent="Mozilla/5.0 (Windows NT 10.0; Win64; x64) AppleWebKit/537.36 (KHTML, like Gecko) Chrome/116.0.0.0 Safari/537.36" version="21.2.1" etag="NRi4HvMFjK2VEhfBj_Cm" type="github">
  <diagram name="Page-1" id="Tf2S8DuqjMvU24pvdfsC">
    <mxGraphModel>
      <root>
        <mxCell id="0" />
        <mxCell id="1" parent="0" />
      </root>
    </mxGraphModel>
  </diagram>
</mxfile>
